<?xml version="1.0" encoding="UTF-8"?>
<svg xmlns="http://www.w3.org/2000/svg" xmlns:xlink="http://www.w3.org/1999/xlink" width="48px" height="48px" viewBox="0 0 48 48" version="1.1">
<g id="surface1">
<path style=" stroke:none;fill-rule:nonzero;fill:rgb(0%,0%,0%);fill-opacity:1;" d="M 46.886719 4.003906 C 46.8125 4.035156 36.933594 14.246094 36.660156 14.46875 C 35.824219 14.472656 38.835938 15.554688 38.984375 15.683594 C 39.160156 15.8125 31.339844 34.386719 31.222656 34.160156 C 30.625 33 21.921875 8.746094 21.839844 8.632812 C 18.769531 4.375 17.933594 4.777344 14.839844 8.679688 C 14.792969 8.734375 3.695312 32.75 2.679688 35.027344 C -0.171875 41.445312 0.835938 43.894531 2.710938 44.226562 C 4.683594 44.578125 4.773438 42.921875 9.144531 33.8125 L 20.917969 33.765625 C 21.308594 33.726562 20.554688 29.808594 18.492188 29.101562 C 17.027344 28.234375 12.007812 28.628906 11.300781 28.492188 C 11.230469 28.480469 17.945312 13.65625 17.945312 13.65625 L 24.28125 31.136719 C 26.996094 38.316406 28.597656 42.855469 28.847656 43.207031 C 29.988281 44.84375 32.644531 44.492188 33.328125 42.976562 C 34.207031 41.035156 43.886719 17.578125 44.054688 17.671875 C 44.328125 17.820312 46.648438 18.808594 46.648438 18.808594 C 46.648438 18.808594 46.960938 4.003906 46.886719 4.003906 Z M 46.886719 4.003906 "/>
</g>
</svg>
